<?xml version="1.0" encoding="UTF-8"?>
<svg version="1.1" xmlns="http://www.w3.org/2000/svg" width="32" height="32">
<path d="M0 0 C1.14984375 -0.00386719 2.2996875 -0.00773438 3.484375 -0.01171875 C4.68578125 -0.00011719 5.8871875 0.01148437 7.125 0.0234375 C8.32640625 0.01183594 9.5278125 0.00023438 10.765625 -0.01171875 C12.49039062 -0.00591797 12.49039062 -0.00591797 14.25 0 C15.83167969 0.00507568 15.83167969 0.00507568 17.4453125 0.01025391 C20.125 0.3984375 20.125 0.3984375 21.96728516 1.55615234 C23.61461838 4.17757294 23.51354594 6.1910385 23.5234375 9.2734375 C23.52923828 10.99820312 23.52923828 10.99820312 23.53515625 12.7578125 C23.52355469 13.95921875 23.51195312 15.160625 23.5 16.3984375 C23.51160156 17.59984375 23.52320313 18.80125 23.53515625 20.0390625 C23.53128906 21.18890625 23.52742188 22.33875 23.5234375 23.5234375 C23.52005371 24.57789062 23.51666992 25.63234375 23.51318359 26.71875 C23.125 29.3984375 23.125 29.3984375 21.96728516 31.24072266 C19.34586456 32.88805588 17.332399 32.78698344 14.25 32.796875 C13.10015625 32.80074219 11.9503125 32.80460937 10.765625 32.80859375 C9.56421875 32.79699219 8.3628125 32.78539062 7.125 32.7734375 C5.92359375 32.78503906 4.7221875 32.79664063 3.484375 32.80859375 C1.75960938 32.80279297 1.75960938 32.80279297 0 32.796875 C-1.05445313 32.79349121 -2.10890625 32.79010742 -3.1953125 32.78662109 C-5.875 32.3984375 -5.875 32.3984375 -7.71728516 31.24072266 C-9.36461838 28.61930206 -9.26354594 26.6058365 -9.2734375 23.5234375 C-9.27730469 22.37359375 -9.28117188 21.22375 -9.28515625 20.0390625 C-9.27355469 18.83765625 -9.26195312 17.63625 -9.25 16.3984375 C-9.26160156 15.19703125 -9.27320313 13.995625 -9.28515625 12.7578125 C-9.28128906 11.60796875 -9.27742187 10.458125 -9.2734375 9.2734375 C-9.27005371 8.21898437 -9.26666992 7.16453125 -9.26318359 6.078125 C-8.875 3.3984375 -8.875 3.3984375 -7.71728516 1.55615234 C-5.09586456 -0.09118088 -3.082399 0.00989156 0 0 Z " fill="#393735" transform="translate(8.875,-0.3984375)"/>
<path d="M0 0 C0.33 0 0.66 0 1 0 C1.086985 3.77068832 1.14038579 7.54111932 1.1875 11.3125 C1.21263672 12.38435547 1.23777344 13.45621094 1.26367188 14.56054688 C1.27333984 15.58857422 1.28300781 16.61660156 1.29296875 17.67578125 C1.3086792 18.62364502 1.32438965 19.57150879 1.34057617 20.5480957 C1 23 1 23 -0.15112305 24.80786133 C-2.77425014 26.49922929 -4.76848442 26.38846855 -7.875 26.3984375 C-9.02484375 26.40230469 -10.1746875 26.40617187 -11.359375 26.41015625 C-12.56078125 26.39855469 -13.7621875 26.38695313 -15 26.375 C-16.20140625 26.38660156 -17.4028125 26.39820312 -18.640625 26.41015625 C-20.36539062 26.40435547 -20.36539062 26.40435547 -22.125 26.3984375 C-23.17945313 26.39505371 -24.23390625 26.39166992 -25.3203125 26.38818359 C-28 26 -28 26 -29.8671875 24.60009766 C-31 23 -31 23 -31 21 C-30.01 21 -29.02 21 -28 21 C-28 18.36 -28 15.72 -28 13 C-25.69 13 -23.38 13 -21 13 C-20.938125 13.928125 -20.938125 13.928125 -20.875 14.875 C-20.58625 15.57625 -20.2975 16.2775 -20 17 C-17.00384054 18.3045656 -17.00384054 18.3045656 -14 19 C-14 18.01 -14 17.02 -14 16 C-11.52171717 16.42729014 -10.27047878 16.71825127 -8.5 18.5625 C-6.86494057 20.46127024 -6.86494057 20.46127024 -3 20 C-3 19.01 -3 18.02 -3 17 C-2.01 17 -1.02 17 0 17 C0 11.39 0 5.78 0 0 Z " fill="#333231" transform="translate(31,6)"/>
<path d="M0 0 C1.98567708 0.5859375 3.97135417 1.171875 5.95703125 1.7578125 C5.95703125 3.0778125 5.95703125 4.3978125 5.95703125 5.7578125 C4.96703125 5.7578125 3.97703125 5.7578125 2.95703125 5.7578125 C2.62703125 5.0978125 2.29703125 4.4378125 1.95703125 3.7578125 C0.15291158 6.51705435 -0.05569325 7.64753353 0.33203125 11.0078125 C0.53828125 11.9153125 0.74453125 12.8228125 0.95703125 13.7578125 C-1.02296875 13.7578125 -3.00296875 13.7578125 -5.04296875 13.7578125 C-5.04296875 12.4378125 -5.04296875 11.1178125 -5.04296875 9.7578125 C-7.35296875 9.4278125 -9.66296875 9.0978125 -12.04296875 8.7578125 C-12.37296875 10.0778125 -12.70296875 11.3978125 -13.04296875 12.7578125 C-13.04296875 10.7778125 -13.04296875 8.7978125 -13.04296875 6.7578125 C-10.73296875 6.7578125 -8.42296875 6.7578125 -6.04296875 6.7578125 C-5.88828125 5.5821875 -5.88828125 5.5821875 -5.73046875 4.3828125 C-4.86738884 1.08741647 -3.5827416 -0.42472271 0 0 Z " fill="#897D7E" transform="translate(15.04296875,10.2421875)"/>
<path d="M0 0 C2.31 0 4.62 0 7 0 C7.061875 0.928125 7.061875 0.928125 7.125 1.875 C7.41375 2.57625 7.7025 3.2775 8 4 C10.99615946 5.3045656 10.99615946 5.3045656 14 6 C14 5.01 14 4.02 14 3 C14.99 3.33 15.98 3.66 17 4 C17 4.66 17 5.32 17 6 C16.34 6 15.68 6 15 6 C15 6.99 15 7.98 15 9 C10.05 9 5.1 9 0 9 C0 6.03 0 3.06 0 0 Z " fill="#2C1F19" transform="translate(3,19)"/>
<path d="M0 0 C0.75410156 0.00322266 1.50820312 0.00644531 2.28515625 0.00976562 C3.06246094 0.01814453 3.83976563 0.02652344 4.640625 0.03515625 C5.43339844 0.03966797 6.22617187 0.04417969 7.04296875 0.04882812 C8.99222008 0.0605706 10.94143238 0.07850479 12.890625 0.09765625 C12.890625 1.74765625 12.890625 3.39765625 12.890625 5.09765625 C5.960625 5.09765625 -0.969375 5.09765625 -8.109375 5.09765625 C-8.109375 3.77765625 -8.109375 2.45765625 -8.109375 1.09765625 C-5.33213575 0.3107718 -2.88327423 -0.02184299 0 0 Z " fill="#1C0D06" transform="translate(11.109375,3.90234375)"/>
<path d="M0 0 C0 1.98 0 3.96 0 6 C-0.99 6 -1.98 6 -3 6 C-2.67 7.32 -2.34 8.64 -2 10 C-5.3125 9.8125 -5.3125 9.8125 -9 9 C-11 6.625 -11 6.625 -12 4 C-11.67 3.01 -11.34 2.02 -11 1 C-7.08609399 -0.47694566 -4.00565371 -1.60226148 0 0 Z " fill="#B49B85" transform="translate(31,17)"/>
<path d="M0 0 C7.26 0 14.52 0 22 0 C22 0.99 22 1.98 22 3 C18.69250717 4.10249761 18.17916453 3.89525677 15.0625 2.8125 C12.97414239 2.17026806 12.97414239 2.17026806 11 2 C8.89586384 3.85410577 8.89586384 3.85410577 7 6 C3.25 6.25 3.25 6.25 0 6 C0 4.02 0 2.04 0 0 Z " fill="#822F1B" transform="translate(2,9)"/>
<path d="M0 0 C1.65 0 3.3 0 5 0 C5 3.96 5 7.92 5 12 C3.35 12.33 1.7 12.66 0 13 C0 8.71 0 4.42 0 0 Z " fill="#5E553F" transform="translate(25,4)"/>
<path d="M0 0 C0.33 0 0.66 0 1 0 C1 2.31 1 4.62 1 7 C0.195625 7.2475 -0.60875 7.495 -1.4375 7.75 C-4.171081 8.72238859 -4.171081 8.72238859 -4.8125 11.125 C-4.874375 11.74375 -4.93625 12.3625 -5 13 C-5.66 12.67 -6.32 12.34 -7 12 C-7 12.99 -7 13.98 -7 15 C-7.66 14.67 -8.32 14.34 -9 14 C-9.40729228 11.67843403 -9.74438677 9.3431213 -10 7 C-9.34 7 -8.68 7 -8 7 C-7.67 5.68 -7.34 4.36 -7 3 C-6.67 3.99 -6.34 4.98 -6 6 C-5.01 6 -4.02 6 -3 6 C-2.67 4.68 -2.34 3.36 -2 2 C-1.34 2 -0.68 2 0 2 C0 1.34 0 0.68 0 0 Z " fill="#423127" transform="translate(24,10)"/>
<path d="M0 0 C1.98567708 0.5859375 3.97135417 1.171875 5.95703125 1.7578125 C5.95703125 3.0778125 5.95703125 4.3978125 5.95703125 5.7578125 C4.96703125 5.7578125 3.97703125 5.7578125 2.95703125 5.7578125 C2.62703125 5.0978125 2.29703125 4.4378125 1.95703125 3.7578125 C1.62703125 4.7478125 1.29703125 5.7378125 0.95703125 6.7578125 C-2.04296875 7.7578125 -2.04296875 7.7578125 -4.23046875 6.8203125 C-4.82859375 6.4696875 -5.42671875 6.1190625 -6.04296875 5.7578125 C-5.73046875 3.8828125 -5.73046875 3.8828125 -5.04296875 1.7578125 C-2.04296875 -0.2421875 -2.04296875 -0.2421875 0 0 Z " fill="#9C6E5A" transform="translate(15.04296875,10.2421875)"/>
<path d="M0 0 C0.66 0 1.32 0 2 0 C2.165 0.639375 2.33 1.27875 2.5 1.9375 C3.781786 4.16119241 3.781786 4.16119241 5.9140625 4.48828125 C7.93575155 4.7275978 9.96841939 4.86893028 12 5 C12 5.33 12 5.66 12 6 C7.38 6 2.76 6 -2 6 C-1 1 -1 1 0 0 Z " fill="#221109" transform="translate(5,21)"/>
<path d="M0 0 C0.75410156 0.00322266 1.50820312 0.00644531 2.28515625 0.00976562 C3.06246094 0.01814453 3.83976563 0.02652344 4.640625 0.03515625 C5.43339844 0.03966797 6.22617187 0.04417969 7.04296875 0.04882812 C8.99222008 0.0605706 10.94143238 0.07850479 12.890625 0.09765625 C12.890625 0.42765625 12.890625 0.75765625 12.890625 1.09765625 C10.70409761 1.43731099 8.51634475 1.76908102 6.328125 2.09765625 C4.50087891 2.37609375 4.50087891 2.37609375 2.63671875 2.66015625 C-0.98565348 3.08320702 -4.46649546 3.1726705 -8.109375 3.09765625 C-8.109375 2.43765625 -8.109375 1.77765625 -8.109375 1.09765625 C-5.33213575 0.3107718 -2.88327423 -0.02184299 0 0 Z " fill="#2D2018" transform="translate(11.109375,3.90234375)"/>
<path d="M0 0 C0.33 0 0.66 0 1 0 C1 1.98 1 3.96 1 6 C0.01 6 -0.98 6 -2 6 C-1.67 7.32 -1.34 8.64 -1 10 C-3.3431213 9.74438677 -5.67843403 9.40729228 -8 9 C-8.33 8.34 -8.66 7.68 -9 7 C-8.030625 6.87625 -7.06125 6.7525 -6.0625 6.625 C-5.051875 6.41875 -4.04125 6.2125 -3 6 C-2.67 5.34 -2.34 4.68 -2 4 C-1.34 4.33 -0.68 4.66 0 5 C0 3.35 0 1.7 0 0 Z " fill="#907E6B" transform="translate(30,17)"/>
<path d="M0 0 C0.66 0 1.32 0 2 0 C1.67 3.63 1.34 7.26 1 11 C2.32 10.67 3.64 10.34 5 10 C5.99 10.33 6.98 10.66 8 11 C8 11.66 8 12.32 8 13 C5.66705225 13.04241723 3.33297433 13.04092937 1 13 C0 12 0 12 -0.09765625 9.27734375 C-0.08605469 8.17519531 -0.07445313 7.07304687 -0.0625 5.9375 C-0.05347656 4.83277344 -0.04445312 3.72804688 -0.03515625 2.58984375 C-0.02355469 1.73519531 -0.01195313 0.88054688 0 0 Z " fill="#6E4730" transform="translate(1,4)"/>
<path d="M0 0 C0.33 0 0.66 0 1 0 C1 2.31 1 4.62 1 7 C-0.8125 7.625 -0.8125 7.625 -3 8 C-3.99 7.34 -4.98 6.68 -6 6 C-5.01 6 -4.02 6 -3 6 C-2.67 4.68 -2.34 3.36 -2 2 C-1.34 2 -0.68 2 0 2 C0 1.34 0 0.68 0 0 Z " fill="#643C2D" transform="translate(24,10)"/>
<path d="M0 0 C0.66 0 1.32 0 2 0 C2 3.3 2 6.6 2 10 C2.66 10.33 3.32 10.66 4 11 C2.68 11.33 1.36 11.66 0 12 C0 8.04 0 4.08 0 0 Z " fill="#776B55" transform="translate(25,5)"/>
<path d="M0 0 C2.64 0.66 5.28 1.32 8 2 C8 3.32 8 4.64 8 6 C7.01 6 6.02 6 5 6 C4.67 5.34 4.34 4.68 4 4 C2.68 4.33 1.36 4.66 0 5 C0 3.35 0 1.7 0 0 Z " fill="#8B513E" transform="translate(13,10)"/>
<path d="M0 0 C0.33 0.66 0.66 1.32 1 2 C2.32 2 3.64 2 5 2 C5 2.66 5 3.32 5 4 C5.66 4.33 6.32 4.66 7 5 C5.02 5.33 3.04 5.66 1 6 C0.34 4.35 -0.32 2.7 -1 1 C-0.67 0.67 -0.34 0.34 0 0 Z " fill="#A7917E" transform="translate(20,18)"/>
<path d="M0 0 C2.31 0.33 4.62 0.66 7 1 C7 1.66 7 2.32 7 3 C5.02 3 3.04 3 1 3 C0.67 3.99 0.34 4.98 0 6 C0 4.02 0 2.04 0 0 Z " fill="#99210A" transform="translate(2,9)"/>
<path d="M0 0 C2.31 0 4.62 0 7 0 C7.33 1.32 7.66 2.64 8 4 C7.67 3.34 7.34 2.68 7 2 C4.69 2.66 2.38 3.32 0 4 C0 2.68 0 1.36 0 0 Z " fill="#503A2C" transform="translate(3,19)"/>
<path d="M0 0 C3.3 0 6.6 0 10 0 C10 0.66 10 1.32 10 2 C6.06329512 3.31223496 3.87511856 2.24296256 0 1 C0 0.67 0 0.34 0 0 Z " fill="#DC441C" transform="translate(14,10)"/>
</svg>
